<?xml version="1.0" encoding="UTF-8"?>
<svg xmlns="http://www.w3.org/2000/svg" xmlns:xlink="http://www.w3.org/1999/xlink" width="80px" height="21px" viewBox="0 0 79 21" version="1.1">
<g id="surface1">
<path style=" stroke:none;fill-rule:nonzero;fill:rgb(63.137257%,0%,100%);fill-opacity:1;" d="M 46.089844 2.394531 L 46.089844 0 L 53.894531 3.175781 L 53.894531 5.128906 L 46.089844 8.300781 L 46.089844 5.859375 L 50.648438 4.152344 Z M 46.089844 2.394531 "/>
<path style=" stroke:none;fill-rule:nonzero;fill:rgb(0%,0%,0%);fill-opacity:1;" d="M 3.003906 21 C 1.355469 21 0 20.167969 0 18.3125 L 0 18.214844 C 0 15.96875 1.9375 15.1875 4.3125 15.1875 L 5.429688 15.1875 L 5.429688 14.75 C 5.429688 13.820312 5.039062 13.285156 4.070312 13.285156 C 3.199219 13.285156 2.761719 13.773438 2.714844 14.457031 L 0.289062 14.457031 C 0.484375 12.40625 2.085938 11.429688 4.214844 11.429688 C 6.398438 11.429688 7.996094 12.355469 7.996094 14.652344 L 7.996094 20.804688 L 5.523438 20.804688 L 5.523438 19.730469 C 5.039062 20.414062 4.214844 21 3.003906 21 Z M 5.429688 17.777344 L 5.429688 16.898438 L 4.410156 16.898438 C 3.148438 16.898438 2.519531 17.238281 2.519531 18.070312 L 2.519531 18.167969 C 2.519531 18.800781 2.90625 19.242188 3.78125 19.242188 C 4.652344 19.191406 5.429688 18.703125 5.429688 17.777344 Z M 13.765625 21 C 11.246094 21 9.402344 19.4375 9.402344 16.3125 L 9.402344 16.164062 C 9.402344 13.039062 11.339844 11.378906 13.765625 11.378906 C 15.847656 11.378906 17.542969 12.453125 17.738281 14.847656 L 15.316406 14.847656 C 15.171875 13.96875 14.683594 13.382812 13.8125 13.382812 C 12.746094 13.382812 11.972656 14.261719 11.972656 16.066406 L 11.972656 16.359375 C 11.972656 18.214844 12.648438 19.046875 13.8125 19.046875 C 14.683594 19.046875 15.316406 18.410156 15.460938 17.386719 L 17.789062 17.386719 C 17.640625 19.535156 16.234375 21 13.765625 21 Z M 23.265625 21 C 20.742188 21 18.902344 19.4375 18.902344 16.3125 L 18.902344 16.164062 C 18.902344 13.039062 20.839844 11.378906 23.265625 11.378906 C 25.347656 11.378906 27.042969 12.453125 27.238281 14.847656 L 24.816406 14.847656 C 24.667969 13.96875 24.183594 13.382812 23.3125 13.382812 C 22.246094 13.382812 21.46875 14.261719 21.46875 16.066406 L 21.46875 16.359375 C 21.46875 18.214844 22.148438 19.046875 23.3125 19.046875 C 24.183594 19.046875 24.816406 18.410156 24.960938 17.386719 L 27.285156 17.386719 C 27.140625 19.535156 25.734375 21 23.265625 21 Z M 32.8125 21 C 30.195312 21 28.402344 19.4375 28.402344 16.359375 L 28.402344 16.164062 C 28.402344 13.089844 30.292969 11.378906 32.761719 11.378906 C 35.042969 11.378906 36.929688 12.648438 36.929688 15.726562 L 36.929688 16.847656 L 30.96875 16.847656 C 31.066406 18.507812 31.792969 19.144531 32.859375 19.144531 C 33.828125 19.144531 34.363281 18.605469 34.554688 17.972656 L 36.929688 17.972656 C 36.640625 19.679688 35.1875 21 32.8125 21 Z M 31.019531 15.140625 L 34.410156 15.140625 C 34.363281 13.773438 33.734375 13.1875 32.714844 13.1875 C 31.9375 13.234375 31.210938 13.675781 31.019531 15.140625 Z M 38.480469 11.625 L 41.050781 11.625 L 41.050781 12.992188 C 41.488281 12.113281 42.40625 11.429688 43.8125 11.429688 C 45.460938 11.429688 46.574219 12.453125 46.574219 14.652344 L 46.574219 20.804688 L 44.007812 20.804688 L 44.007812 15.042969 C 44.007812 13.96875 43.570312 13.480469 42.648438 13.480469 C 41.777344 13.480469 41.050781 14.015625 41.050781 15.1875 L 41.050781 20.804688 L 38.480469 20.804688 Z M 51.277344 8.839844 L 51.277344 11.625 L 53.023438 11.625 L 53.023438 13.527344 L 51.277344 13.527344 L 51.277344 17.875 C 51.277344 18.558594 51.566406 18.898438 52.199219 18.898438 C 52.585938 18.898438 52.828125 18.851562 53.070312 18.753906 L 53.070312 20.753906 C 52.78125 20.851562 52.246094 20.949219 51.617188 20.949219 C 49.628906 20.949219 48.707031 20.023438 48.707031 18.167969 L 48.707031 13.527344 L 47.640625 13.527344 L 47.640625 11.625 L 48.707031 11.625 L 48.707031 9.914062 Z M 62.617188 20.804688 L 60.097656 20.804688 L 60.097656 19.4375 C 59.660156 20.316406 58.789062 21 57.433594 21 C 55.785156 21 54.574219 19.972656 54.574219 17.824219 L 54.574219 11.625 L 57.140625 11.625 L 57.140625 17.484375 C 57.140625 18.558594 57.578125 19.046875 58.449219 19.046875 C 59.324219 19.046875 60.050781 18.460938 60.050781 17.335938 L 60.050781 11.625 L 62.617188 11.625 Z M 64.507812 11.625 L 67.078125 11.625 L 67.078125 13.332031 C 67.609375 12.113281 68.484375 11.527344 69.839844 11.527344 L 69.839844 14.066406 C 68.09375 14.066406 67.078125 14.601562 67.078125 16.117188 L 67.078125 20.851562 L 64.507812 20.851562 Z M 75.027344 21 C 72.410156 21 70.617188 19.4375 70.617188 16.359375 L 70.617188 16.164062 C 70.617188 13.089844 72.503906 11.378906 74.976562 11.378906 C 77.253906 11.378906 79.144531 12.648438 79.144531 15.726562 L 79.144531 16.847656 L 73.234375 16.847656 C 73.328125 18.507812 74.054688 19.144531 75.121094 19.144531 C 76.09375 19.144531 76.625 18.605469 76.820312 17.972656 L 79.195312 17.972656 C 78.804688 19.679688 77.402344 21 75.027344 21 Z M 73.183594 15.140625 L 76.625 15.140625 C 76.578125 13.773438 75.945312 13.1875 74.929688 13.1875 C 74.152344 13.234375 73.425781 13.675781 73.183594 15.140625 Z M 73.183594 15.140625 "/>
</g>
</svg>
